# xmcd CD database file
#
# Track frame offsets:
#	150
#	29753
#	49314
#	73621
#	100970
#	116962
#	149492
#	181337
#	208044
#	236625
#	249626
#	264831
#	290923
#	309451
#
# Disc length: 4616 seconds
#
# Revision: 0
# Processed by: cddbd v1.5.1PL2 Copyright (c) Steve Scherf et al.
# Submitted via: Feurio! 1.68 - http://www.feurio.com
#
DISCID=e212060e
DTITLE=Roy Buchanan - Roy'z Bluez
DYEAR=1900
DGENRE=
TTITLE0=When A Guitars Plays The Blues
TTITLE1=Hot Cha
TTITLE2=Hey Joe
TTITLE3=I'm Evil
TTITLE4=Peter Gunn
TTITLE5=Pete's Blues
TTITLE6=Ramon's Blues
TTITLE7=Roy's Bluz
TTITLE8=Five String Blues
TTITLE9=Roy's Guitar Boogie
TTITLE10=Tribute to Elmore James
TTITLE11=Turn To Stone
TTITLE12=Flash Chordin
TTITLE13=The Blues Lover
EXTD=
EXTT0=
EXTT1=
EXTT2=
EXTT3=
EXTT4=
EXTT5=
EXTT6=
EXTT7=
EXTT8=
EXTT9=
EXTT10=
EXTT11=
EXTT12=
EXTT13=
PLAYORDER=
